<?xml version="1.0" encoding="UTF-8" standalone="no"?>
<!-- Created with Inkscape (http://www.inkscape.org/) -->

<svg
   xmlns:dc="http://purl.org/dc/elements/1.1/"
   xmlns:cc="http://creativecommons.org/ns#"
   xmlns:rdf="http://www.w3.org/1999/02/22-rdf-syntax-ns#"
   xmlns:svg="http://www.w3.org/2000/svg"
   xmlns="http://www.w3.org/2000/svg"
   xmlns:sodipodi="http://sodipodi.sourceforge.net/DTD/sodipodi-0.dtd"
   xmlns:inkscape="http://www.inkscape.org/namespaces/inkscape"
   width="25"
   height="41"
   viewBox="0 0 25 41.000001"
   id="svg4248"
   version="1.1"
   inkscape:version="0.91 r13725"
   inkscape:export-filename="C:\Users\Micha\Documents\Cityhack\Picto3x.png"
   inkscape:export-xdpi="219.51219"
   inkscape:export-ydpi="219.51219"
   sodipodi:docname="Icon.svg">
  <defs
     id="defs4250">
    <inkscape:perspective
       sodipodi:type="inkscape:persp3d"
       inkscape:vp_x="-8.2706241 : 11.850568 : 1"
       inkscape:vp_y="0 : 1000 : 0"
       inkscape:vp_z="291.49087 : 13.870874 : 1"
       inkscape:persp3d-origin="8.7750624 : 9.5629222 : 1"
       id="perspective4811" />
  </defs>
  <sodipodi:namedview
     id="base"
     pagecolor="#ffffff"
     bordercolor="#666666"
     borderopacity="1.0"
     inkscape:pageopacity="0.0"
     inkscape:pageshadow="2"
     inkscape:zoom="2.8"
     inkscape:cx="17.442344"
     inkscape:cy="-12.948232"
     inkscape:document-units="px"
     inkscape:current-layer="layer1"
     showgrid="false"
     units="px"
     inkscape:window-width="1366"
     inkscape:window-height="746"
     inkscape:window-x="-8"
     inkscape:window-y="-8"
     inkscape:window-maximized="1" />
  <metadata
     id="metadata4253">
    <rdf:RDF>
      <cc:Work
         rdf:about="">
        <dc:format>image/svg+xml</dc:format>
        <dc:type
           rdf:resource="http://purl.org/dc/dcmitype/StillImage" />
        <dc:title></dc:title>
      </cc:Work>
    </rdf:RDF>
  </metadata>
  <g
     inkscape:label="Ebene 1"
     inkscape:groupmode="layer"
     id="layer1"
     transform="translate(0,-1011.3622)">
    <g
       id="g6257"
       transform="matrix(2.0519954,0,0,2.0519954,-12.861604,-1073.8603)">
      <g
         transform="matrix(-0.0241566,0,0,-0.0241566,12.440314,1025.601)"
         id="g5675">
        <path
           sodipodi:nodetypes="ccccccccccccccccccccccccccccccccccccccccccsccccccccccccccccccccccccccsccccsccccccccscccccccccccscccccccccscccccccccscscccccccccccc"
           inkscape:connector-curvature="0"
           id="path5677"
           style="fill:#393536;fill-opacity:1;fill-rule:nonzero;stroke:none"
           d="m 0,0 c -1.276,-3.636 -6.015,-4.356 -9.866,-4.468 -3.067,-0.088 -6.226,-0.161 -9.092,0.934 -2.865,1.096 -5.394,3.666 -5.468,6.732 -0.028,1.163 0.29,2.304 0.605,3.423 0.662,2.349 1.323,4.696 1.985,7.045 0.601,2.135 1.29,4.408 3.008,5.811 1.764,1.439 4.203,1.629 6.475,1.758 2.346,0.133 4.872,0.222 6.846,-1.052 C -3.249,18.726 -2.35,15.91 -1.71,13.301 -0.998,10.393 -0.405,7.455 0.064,4.499 0.301,3.002 0.502,1.431 0,0 m -12.125,-76.427 c -0.012,-2.194 -0.055,-4.507 -1.173,-6.395 -1.119,-1.889 -3.714,-3.089 -5.583,-1.939 -1.043,3.409 -0.682,7.069 -0.312,10.615 l 1.137,10.875 c 0.048,0.459 0.101,0.936 0.337,1.333 0.77,1.296 2.718,0.912 4.122,0.361 1.513,-4.762 1.499,-9.854 1.472,-14.85 m -11.947,40.842 c -0.392,-2.732 -2.662,-5.376 -5.42,-5.255 -2.838,6.83 -3.222,14.651 -1.066,21.725 1.774,-2.713 3.349,-5.558 4.705,-8.503 1.156,-2.507 2.173,-5.235 1.781,-7.967 m -0.402,-32.801 c -0.698,-5.681 -2.005,-11.288 -3.888,-16.693 -0.123,-0.353 -0.25,-0.707 -0.448,-1.025 -0.787,-1.261 -2.754,-1.566 -3.887,-0.602 -0.562,0.478 -0.894,1.17 -1.369,1.734 -1.5,1.779 -4.104,2.018 -6.428,2.126 -2.021,0.094 -4.042,0.187 -6.063,0.281 -1.351,0.063 -2.814,0.169 -3.832,1.058 -1.607,1.404 -1.302,3.939 -0.862,6.027 0.79,3.748 1.581,7.496 2.372,11.244 6.208,0.079 12.419,-0.101 18.612,-0.537 0.046,0.711 0.091,1.423 0.137,2.134 1.871,1.03 4.534,0.13 5.399,-1.822 0.539,-1.214 0.419,-2.606 0.257,-3.925 m -16.101,52.884 c 1.55,0.327 3.099,0.654 4.649,0.981 -0.121,-4.705 -0.241,-9.41 -0.362,-14.114 -0.087,-3.359 -0.229,-6.911 -2.056,-9.731 -1.827,-2.82 -5.98,-4.414 -8.651,-2.375 0.68,8.696 2.862,17.274 6.42,25.239 m -14.992,-56.745 c -0.179,-1.419 -0.662,-3.109 -2.046,-3.474 -1.937,-0.51 -3.197,1.965 -3.655,3.915 -0.255,1.088 -0.511,2.176 -0.766,3.263 -0.125,0.531 -0.243,1.118 0.017,1.598 0.201,0.369 0.587,0.595 0.963,0.784 1.798,0.905 3.799,1.403 5.811,1.449 0.099,-2.516 -0.009,-5.038 -0.324,-7.535 m -17.497,59.099 c -5.136,-0.148 -10.428,-0.27 -15.227,1.564 -4.798,1.834 -9.033,6.138 -9.157,11.273 -0.048,1.949 0.486,3.858 1.013,5.734 1.108,3.932 2.216,7.865 3.323,11.798 1.008,3.575 2.162,7.383 5.04,9.731 2.953,2.41 7.037,2.73 10.843,2.945 3.929,0.224 8.158,0.373 11.465,-1.761 3.782,-2.441 5.287,-7.157 6.359,-11.528 1.193,-4.869 2.185,-9.788 2.971,-14.74 0.398,-2.508 0.734,-5.139 -0.108,-7.534 -2.136,-6.089 -10.073,-7.296 -16.522,-7.482 m 90.29,-6.909 c -1.805,0.088 -1.872,0.092 -3.676,0.18 -1.872,5.413 -2.659,11.198 -2.302,16.914 0.817,-1.576 2.451,-2.701 4.216,-2.902 1.752,7.074 3.503,14.148 5.254,21.222 0.826,3.337 1.598,7.087 -0.178,10.03 -1.772,-0.767 -3.21,-0.432 -4.982,-1.199 0.76,16.086 -1.928,32.327 -7.831,47.31 -1.053,2.674 -2.227,5.567 -1.445,8.332 0.926,3.272 4.278,5.245 5.874,8.248 1.596,3.003 -1.064,8.186 -3.939,6.37 5.884,6.636 7.286,16.889 3.399,24.861 -4.139,-3.723 -8.989,-6.653 -14.21,-8.582 l 0.855,7.737 c -7.551,-0.79 -15.102,-1.579 -22.653,-2.369 2.263,2.951 4.525,5.901 6.787,8.851 -8.731,0.425 -17.549,-1.069 -25.653,-4.346 0.053,3.337 1.388,6.636 3.67,9.072 -6.511,1.354 -13.295,-1.859 -17.928,-6.63 -4.632,-4.77 -9.475,-12.635 -12.282,-18.663 -19.593,0.711 -42.353,0.021 -54.319,-15.51 -4.123,-5.352 -6.374,-11.878 -8.473,-18.299 -5.977,-18.28 -11.344,-37.544 -8.246,-56.525 l -7.796,4.019 c -1.777,-1.105 -2.536,-3.591 -1.681,-5.501 11.584,-10.709 17.884,-26.883 16.594,-42.606 l -9.949,6.838 c -0.786,-7.874 6.047,-15.669 13.957,-15.92 3.103,-11.511 8.62,-22.365 16.09,-31.657 l 2.099,6.581 c 2.354,-0.797 3.246,-3.607 3.72,-6.047 0.474,-2.44 1.106,-5.245 3.323,-6.369 2.027,-1.029 4.939,1.424 4.023,3.133 5.084,-6.854 11.237,-12.913 18.18,-17.875 -2.877,-2.62 -7.31,-3.381 -10.896,-1.871 3.793,-6.694 10.127,-10.904 17.343,-13.807 0.516,-3.955 1.463,-7.912 2.416,-11.762 0.163,-0.656 0.359,-1.365 0.901,-1.767 1.783,-1.323 3.783,2.089 5.994,1.906 1.007,-1.858 1.352,-4.067 0.96,-6.143 3.293,1.68 7.473,-0.871 8.887,-4.287 1.414,-3.416 0.858,-7.287 0.279,-10.938 -19.401738,11.81421 4.55589,-5.06471 -6.189163,-11.85759 12.955216,-2.08982 -0.377621,-2.17882 0.134379,-2.23782 6.805,-0.788 0.973784,-0.73359 7.778784,-1.52259 14.248,-1.651 28.736,-3.297 42.84,-0.455 1.187,0.24 2.338,0.688 3.316,1.4 4.546,3.309 -9.833009,5.91776 -11.994009,9.89176 1.11467,6.27841 -10.741462,11.30558 -0.868063,18.83524 -2.365,4.351 -0.542928,8.837 -1.558928,13.642 7.823,1.682 15.515,4.694 22.092,8.527 6.287,3.664 9.241,12.164 6.583,18.939 -2.277,-3.094 -7.499,-2.229 -9.998,0.687 -2.499,2.916 -3.023,6.987 -3.441,10.804 -0.347,3.165 -0.658,6.541 0.791,9.376 1.448,2.835 5.389,4.619 7.931,2.702 0.373,-1.187 0.746,-2.376 1.118,-3.563 1.514,2.647 4.323,4.511 7.351,4.878 0.289,-1.557 0.578,-3.113 0.868,-4.669 0.212,-1.14 1.86,-1.098 2.013,0.051 l 4.44,33.232 c 0.174,1.3 0.359,2.636 0.999,3.781 0.642,1.148 1.688,2.011 2.455,3.078 2.038,2.839 1.692,7.134 -0.774,9.61 -0.756,-1.72 -1.513,-3.439 -2.269,-5.158" />
      </g>
      <path
         inkscape:connector-curvature="0"
         id="path5627"
         d="m 7.0051298,1035.4286 c -0.079844,-0.08 -0.1084993,-0.1438 -0.1084993,-0.2425 0,-0.1231 0.05378,-0.1899 0.6678752,-0.8287 l 0.6678761,-0.6947 2.598e-4,-0.1719 2.599e-4,-0.1719 -0.3471191,-0.015 c -0.29838,-0.013 -0.3812922,-0.032 -0.5905014,-0.1349 -0.4379874,-0.2156 -0.8001846,-0.6991 -0.873361,-1.1658 -0.019245,-0.1227 -0.013028,-0.6666 0.015644,-1.3691 0.2878411,-7.0524 0.426896,-10.2338 0.458016,-10.4794 0.084485,-0.6667 0.5150704,-1.1983 1.112051,-1.3729 0.1730449,-0.05 0.4819976,-0.059 2.180692,-0.059 l 1.979085,0 0,-0.7053 0,-0.7052 -1.208183,0 c -1.3103808,0 -1.3586649,0.01 -1.4641684,0.2038 -0.1466993,0.2742 -0.4192807,0.1732 -0.352569,-0.1305 0.033942,-0.1546 0.2062608,-0.3138 0.396076,-0.3662 0.1192816,-0.033 0.8657184,-0.042 2.9072314,-0.034 2.578015,0.01 2.755161,0.015 2.883763,0.079 0.234358,0.1166 0.365371,0.4264 0.235319,0.5564 -0.112469,0.1125 -0.154338,0.092 -0.370087,-0.1791 l -0.08854,-0.1113 -1.265269,-0.011 -1.265269,-0.011 0,0.7055 0,0.7055 2.069338,0.01 2.069337,0.01 0.249557,0.1182 c 0.537113,0.2544 0.853289,0.7103 0.922506,1.3299 0.02049,0.1835 0.136653,2.7388 0.258152,5.6786 0.1215,2.9397 0.230274,5.4702 0.24172,5.6234 0.01145,0.153 0.0029,0.3701 -0.01901,0.4823 -0.09926,0.5085 -0.449553,0.9821 -0.884906,1.1964 -0.206392,0.1016 -0.290428,0.1207 -0.587932,0.1337 l -0.34712,0.015 0.0014,0.1718 c 0.0014,0.1718 0.0019,0.1724 0.668127,0.866 0.614144,0.6394 0.666739,0.7048 0.666739,0.8287 0,0.1796 -0.165103,0.3517 -0.337178,0.3517 -0.103809,0 -0.183118,-0.062 -0.582216,-0.4547 -0.25412,-0.25 -0.610552,-0.6172 -0.792071,-0.8158 l -0.330034,-0.3611 0,-0.2978 0,-0.2977 -3.451989,0 -3.4519896,0 0,0.2574 c 0,0.1416 -0.016592,0.3011 -0.036877,0.3545 -0.020285,0.053 -0.3752232,0.4388 -0.7887605,0.8566 -0.6797433,0.6868 -0.7637359,0.7597 -0.8753758,0.7591 -0.086536,-3e-4 -0.155961,-0.033 -0.2319883,-0.109 z m 2.2476716,-3.9903 c 0.1963099,-0.082 0.2862803,-0.2534 0.2695802,-0.5136 -0.02549,-0.3971 -0.1781329,-0.5087 -0.6956074,-0.5087 -0.3850173,0 -0.4875323,0.033 -0.6088716,0.1964 -0.059842,0.08 -0.077811,0.1593 -0.077811,0.3406 0,0.2528 0.073299,0.4037 0.2362002,0.4863 0.124748,0.063 0.7243589,0.063 0.8765127,0 z m 7.2070286,-0.04 c 0.196751,-0.129 0.262052,-0.5269 0.123689,-0.7539 -0.0412,-0.067 -0.132469,-0.1469 -0.20282,-0.1763 -0.186285,-0.078 -0.707519,-0.071 -0.872655,0.012 -0.364519,0.182 -0.338826,0.828 0.0384,0.9654 0.181097,0.066 0.788714,0.035 0.913382,-0.047 z m -4.782908,-2.3662 c -0.05005,-0.067 -0.440381,-0.5871 -0.867402,-1.1571 l -0.776406,-1.0365 -0.01856,0.8075 c -0.017112,0.7446 -0.024178,0.8116 -0.090611,0.8601 -0.099887,0.073 -0.1931974,0.066 -0.2805714,-0.022 -0.072642,-0.073 -0.074238,-0.1237 -0.074238,-2.3819 0,-2.0952 0.00565,-2.3139 0.061429,-2.3755 0.073499,-0.081 0.1944765,-0.088 0.2933777,-0.015 0.06823,0.05 0.072624,0.1139 0.082862,1.2086 l 0.01081,1.1559 1.154581,1.5392 1.154581,1.5393 2.013114,0 c 1.773053,0 2.023128,-0.011 2.097089,-0.063 l 0.08397,-0.058 -0.02567,-0.8572 c -0.01412,-0.4714 -0.07485,-2.1683 -0.134953,-3.7709 -0.06011,-1.6026 -0.109424,-2.9848 -0.109599,-3.0716 -2.23e-4,-0.1079 -0.02376,-0.1811 -0.07456,-0.2319 -0.07324,-0.073 -0.123727,-0.074 -3.786053,-0.074 -3.6623214,0 -3.7128026,0 -3.7860483,0.074 -0.053196,0.053 -0.074238,0.1237 -0.074238,0.2489 0,0.2858 -0.2554776,7.1769 -0.2737129,7.3829 -0.00948,0.1071 0.00237,0.2282 0.027296,0.2783 0.03891,0.078 0.076562,0.091 0.3215576,0.11 0.1526151,0.012 0.9267122,0.024 1.7202126,0.028 l 1.442735,0.01 -0.09099,-0.1206 z"
         style="fill:#fbc10f;fill-opacity:1" />
    </g>
    <g
       id="g5683"
       transform="matrix(0.05649947,0,0,-0.0669231,24.235432,1025.1258)">
      <path
         d="M 0,0 -7.762,0 -13.75,-6.232 -9.229,0 l -6.066,0 -9.288,-6.232 6.232,6.232 -4.966,0 -18.887,-11.399 -208.102,0 4.082,9.609 -26.335,-11.109 26.335,-11.11 -4.082,9.61 208.097,0 18.892,-11.4 6.812,0 -6.495,5.067 9.873,-5.067 13.127,0 -12.896,12.9 L 0,0 Z"
         style="fill:#393536;fill-opacity:1;fill-rule:nonzero;stroke:none"
         id="path5685"
         inkscape:connector-curvature="0" />
    </g>
    <g
       id="g5687"
       transform="matrix(0.0669231,0,0,-0.0669231,18.887286,1019.5015)">
      <path
         d="m 0,0 -4.205,-6.524 1.995,-8.411 -2.789,7.177 -3.287,-5.099 0.208,-11.184 -1.863,8.615 -2.691,-4.175 -0.648,-22.05 -112.729,-174.925 -5.865,8.637 -4.928,-28.155 23.604,16.118 -10.289,1.775 112.725,174.92 19.817,9.706 3.69,5.725 -7.777,-2.714 9.606,5.553 7.112,11.035 L 3.856,-17.828 0,0 Z"
         style="fill:#393536;fill-opacity:1;fill-rule:nonzero;stroke:none"
         id="path5689"
         inkscape:connector-curvature="0" />
    </g>
    <g
       id="g5691"
       transform="matrix(0.06407253,0,0,-0.06407253,6.5461906,1025.4512)">
      <path
         d="m 0,0 7.469,-2.113 4.065,-7.627 -2.654,7.227 5.838,-1.651 7.24,-8.525 -4.301,7.693 4.78,-1.352 15.07,-16.11 200.242,-56.653 -1.312,10.358 22.316,-17.859 -28.365,-3.521 6.545,8.135 -200.238,56.651 -21.282,-5.825 -6.555,1.855 7.629,3.106 -10.879,-2.187 -12.631,3.574 15.92,8.901 L 0,0 Z"
         style="fill:#393536;fill-opacity:1;fill-rule:nonzero;stroke:none"
         id="path5693"
         inkscape:connector-curvature="0" />
    </g>
  </g>
</svg>
